<svg xmlns="http://www.w3.org/2000/svg" width="500" height="398.438" viewBox="0 0 500 398.438"><path d="M55.157,52.07C54.214,24.98,75.32,0,103.85,0H396.187c28.529,0,49.636,24.98,48.692,52.07-.906,26.022.271,59.731,8.754,87.217,8.511,27.57,22.862,45,46.367,47.236v25.391c-23.5,2.239-37.856,19.666-46.367,47.236-8.483,27.485-9.66,61.194-8.754,87.218.943,27.089-20.163,52.069-48.692,52.069H103.85c-28.529,0-49.636-24.98-48.691-52.069.905-26.023-.271-59.732-8.756-87.218-8.51-27.57-22.9-45-46.4-47.236V186.523c23.5-2.239,37.893-19.666,46.4-47.236,8.484-27.485,9.661-61.194,8.755-87.217Z" fill="#574ab0"/><path d="M265.012,307.371c46.188,0,74.021-22.615,74.021-59.917,0-28.2-19.859-48.609-49.348-51.841v-1.175c21.665-3.524,38.666-23.644,38.666-46.112,0-32.015-25.275-52.869-63.791-52.869H177.9V307.371ZM211.6,122.332h44.835c24.373,0,38.214,10.867,38.214,30.546,0,21-16.1,32.749-45.285,32.749H211.6V122.332Zm0,158.165V210.74h44.533c31.9,0,48.445,11.748,48.445,34.658s-16.1,35.1-46.489,35.1Z" transform="translate(-4.17 -2.237)" fill="#fff"/></svg>