<svg xmlns="http://www.w3.org/2000/svg" width="354.232" height="500" viewBox="0 0 354.232 500"><g transform="translate(-193.633 -276.362)"><g transform="translate(193.633 276.362)"><path d="M428.865,100.62,396.594,462.142,251.532,502.358,106.87,462.2,74.633,100.62Z" transform="translate(-74.633 -2.358)" fill="#264de4"/><path d="M373.217,439.832l27.578-308.938H256V472.329Z" transform="translate(-78.884 -3.068)" fill="#2965f1"/><path d="M150.31,268.217l3.975,44.346h99.238V268.217Z" transform="translate(-76.407 -6.286)" fill="#ebebeb"/><path d="M253.331,176.3h-111.2l4.031,44.347H253.331Z" transform="translate(-76.215 -4.132)" fill="#ebebeb"/><path d="M253.666,431.124V384.985l-.194.052L204.083,371.7l-3.157-35.368H156.409l6.213,69.63,90.84,25.218Z" transform="translate(-76.55 -7.883)" fill="#ebebeb"/><path d="M160,0h53.711V22.461h-31.25V44.922h31.25V67.383H160Z" transform="translate(-76.634)"/><path d="M226,0h53.711V19.531h-31.25v3.906h31.25V68.359H226V47.852h31.25V43.945H226Z" transform="translate(-78.181)"/><path d="M292,0h53.711V19.531h-31.25v3.906h31.25V68.359H292V47.852h31.25V43.945H292Z" transform="translate(-79.728)"/><path d="M310.45,310.409,305.3,367.922l-49.46,13.35v46.137l90.912-25.2.667-7.492,10.421-116.749,1.082-11.908,8.006-89.758H255.843v44.347h62.488L314.3,266.063H255.843v44.346Z" transform="translate(-78.88 -4.132)" fill="#fff"/></g></g></svg>