<svg width="50" height="50" viewBox="0 0 50 50" fill="none" xmlns="http://www.w3.org/2000/svg">
<rect width="50" height="50" fill="#1E1E1E"/>
<rect width="50" height="50" rx="14" fill="#F4D600"/>
<path d="M12.9375 23.0938C13.0417 23.1979 13.1667 23.3958 13.3125 23.6875C13.4792 23.9792 13.4896 24.2396 13.3438 24.4688C13.3021 24.5729 13.0625 24.75 12.625 25C12.2083 25.25 11.6979 25.5417 11.0938 25.875C10.5104 26.1875 9.875 26.5208 9.1875 26.875C8.5 27.2292 7.86458 27.5625 7.28125 27.875C7.84375 28.1875 8.4375 28.5312 9.0625 28.9062C9.6875 29.2604 10.2604 29.6042 10.7812 29.9375C11.3229 30.25 11.7812 30.5312 12.1562 30.7812C12.5312 31.0312 12.7396 31.1979 12.7812 31.2812C12.9062 31.5312 12.8854 31.7917 12.7188 32.0625C12.5521 32.3333 12.4062 32.5208 12.2812 32.625C12.2188 32.6875 12 32.6562 11.625 32.5312C11.25 32.4062 10.7917 32.2396 10.25 32.0312C9.70833 31.8021 9.11458 31.5521 8.46875 31.2812C7.84375 30.9896 7.25 30.7083 6.6875 30.4375C6.125 30.1667 5.63542 29.9167 5.21875 29.6875C4.80208 29.4583 4.54167 29.2917 4.4375 29.1875C4.29167 29.0625 4.1875 28.8646 4.125 28.5938C4.08333 28.3229 4.0625 28.0417 4.0625 27.75C4.0625 27.4583 4.08333 27.1979 4.125 26.9688C4.1875 26.7188 4.25 26.5729 4.3125 26.5312C4.4375 26.4271 4.72917 26.2604 5.1875 26.0312C5.64583 25.8021 6.17708 25.5521 6.78125 25.2812C7.40625 25.0104 8.0625 24.7396 8.75 24.4688C9.45833 24.1771 10.1042 23.9271 10.6875 23.7188C11.2917 23.4896 11.8021 23.3229 12.2188 23.2188C12.6354 23.0938 12.875 23.0521 12.9375 23.0938ZM24.75 13.0625C24.75 13.1458 24.625 13.5208 24.375 14.1875C24.1458 14.8542 23.8229 15.7083 23.4062 16.75C23.0104 17.7917 22.5417 18.9688 22 20.2812C21.4792 21.5729 20.9375 22.8958 20.375 24.25C19.8125 25.6042 19.25 26.9271 18.6875 28.2188C18.1458 29.5104 17.6458 30.6771 17.1875 31.7188C16.7292 32.7604 16.3438 33.625 16.0312 34.3125C15.7188 34.9792 15.5104 35.3542 15.4062 35.4375C15.0729 35.75 14.7396 35.9375 14.4062 36C14.0729 36.0417 13.8229 36.0417 13.6562 36C13.5938 35.9792 13.6458 35.6771 13.8125 35.0938C13.9792 34.4896 14.2188 33.6979 14.5312 32.7188C14.8438 31.7188 15.2083 30.5938 15.625 29.3438C16.0625 28.0729 16.5104 26.7812 16.9688 25.4688C17.4271 24.1354 17.8854 22.8229 18.3438 21.5312C18.8229 20.2188 19.2604 19.0417 19.6562 18C20.0521 16.9583 20.3854 16.0938 20.6562 15.4062C20.9271 14.6979 21.1146 14.2708 21.2188 14.125C21.4062 13.8333 21.6875 13.5729 22.0625 13.3438C22.4583 13.1146 22.8542 12.9479 23.25 12.8438C23.6458 12.7188 23.9896 12.6771 24.2812 12.7188C24.5938 12.7396 24.75 12.8542 24.75 13.0625ZM35.875 17.0938C35.8958 17.4062 35.8542 17.875 35.75 18.5C35.6667 19.125 35.5208 19.75 35.3125 20.375C35.1042 21 34.8333 21.5521 34.5 22.0312C34.1875 22.4896 33.8229 22.7188 33.4062 22.7188C33.1979 22.7188 33.0208 22.5938 32.875 22.3438C32.7292 22.0938 32.6042 21.7708 32.5 21.375C32.3958 20.9792 32.3125 20.5417 32.25 20.0625C32.1875 19.5625 32.125 19.0833 32.0625 18.625C32.0208 18.1667 31.9792 17.75 31.9375 17.375C31.9167 16.9792 31.8958 16.6875 31.875 16.5C31.7917 16.375 31.6354 16.25 31.4062 16.125C31.1979 15.9792 31.0104 15.9062 30.8438 15.9062C30.6562 15.9062 30.4271 16.0833 30.1562 16.4375C29.9062 16.7917 29.6667 17.2083 29.4375 17.6875C29.2083 18.1667 29.0208 18.6458 28.875 19.125C28.7292 19.5833 28.6667 19.9375 28.6875 20.1875C28.6875 20.3542 28.8438 20.6458 29.1562 21.0625C29.4896 21.4792 29.8958 21.9688 30.375 22.5312C30.8542 23.0938 31.375 23.7083 31.9375 24.375C32.5 25.0208 33.0208 25.6667 33.5 26.3125C33.9792 26.9583 34.3854 27.5729 34.7188 28.1562C35.0521 28.7396 35.2292 29.2396 35.25 29.6562C35.2917 30.1562 35.1771 30.8021 34.9062 31.5938C34.6562 32.3646 34.3333 33.1146 33.9375 33.8438C33.5417 34.5729 33.1146 35.2083 32.6562 35.75C32.2188 36.2708 31.8229 36.5417 31.4688 36.5625C31.2396 36.5833 30.9375 36.4792 30.5625 36.25C30.1875 36.0417 29.7812 35.7604 29.3438 35.4062C28.9062 35.0521 28.4583 34.6667 28 34.25C27.5625 33.8125 27.1458 33.3854 26.75 32.9688C26.375 32.5521 26.0521 32.1771 25.7812 31.8438C25.5312 31.4896 25.3854 31.2292 25.3438 31.0625C25.2604 30.8125 25.2083 30.4792 25.1875 30.0625C25.1875 29.625 25.2083 29.2083 25.25 28.8125C25.3125 28.3958 25.3854 28.0417 25.4688 27.75C25.5729 27.4375 25.6979 27.2812 25.8438 27.2812C25.9479 27.2812 26.1146 27.4167 26.3438 27.6875C26.5938 27.9583 26.875 28.3021 27.1875 28.7188C27.5 29.1354 27.8333 29.5938 28.1875 30.0938C28.5625 30.5729 28.9167 31.0208 29.25 31.4375C29.5833 31.8542 29.8854 32.2083 30.1562 32.5C30.4271 32.7708 30.6458 32.8958 30.8125 32.875C30.9375 32.875 31.0729 32.7812 31.2188 32.5938C31.3646 32.3854 31.5 32.1458 31.625 31.875C31.75 31.5833 31.8542 31.2917 31.9375 31C32.0208 30.7083 32.0625 30.4792 32.0625 30.3125C32.0417 30.0625 31.8333 29.7083 31.4375 29.25C31.0625 28.7708 30.5833 28.2396 30 27.6562C29.4375 27.0521 28.8229 26.4271 28.1562 25.7812C27.5104 25.1354 26.8958 24.5208 26.3125 23.9375C25.75 23.3333 25.2708 22.7917 24.875 22.3125C24.5 21.8333 24.3021 21.4688 24.2812 21.2188C24.2604 20.9688 24.3333 20.5833 24.5 20.0625C24.6667 19.5208 24.8854 18.9167 25.1562 18.25C25.4479 17.5833 25.7708 16.9062 26.125 16.2188C26.4792 15.5312 26.8438 14.8958 27.2188 14.3125C27.5938 13.7292 27.9583 13.2604 28.3125 12.9062C28.6667 12.5312 28.9792 12.3438 29.25 12.3438C29.6042 12.3438 30.0104 12.4271 30.4688 12.5938C30.9271 12.7396 31.3958 12.9479 31.875 13.2188C32.375 13.4688 32.8542 13.7604 33.3125 14.0938C33.7917 14.4271 34.2188 14.7708 34.5938 15.125C34.9688 15.4583 35.2708 15.8021 35.5 16.1562C35.7292 16.4896 35.8542 16.8021 35.875 17.0938ZM37.0625 23.0938C37.125 23.0521 37.3542 23.0938 37.75 23.2188C38.1667 23.3229 38.6771 23.4896 39.2812 23.7188C39.8854 23.9271 40.5312 24.1771 41.2188 24.4688C41.9062 24.7396 42.5625 25.0104 43.1875 25.2812C43.8125 25.5521 44.3438 25.8021 44.7812 26.0312C45.2396 26.2604 45.5312 26.4271 45.6562 26.5312C45.7188 26.5729 45.7708 26.7188 45.8125 26.9688C45.8542 27.1979 45.875 27.4583 45.875 27.75C45.8958 28.0417 45.875 28.3229 45.8125 28.5938C45.7708 28.8646 45.6875 29.0625 45.5625 29.1875C45.4375 29.2917 45.1667 29.4583 44.75 29.6875C44.3333 29.9167 43.8438 30.1667 43.2812 30.4375C42.7188 30.7083 42.1146 30.9896 41.4688 31.2812C40.8438 31.5521 40.2604 31.8021 39.7188 32.0312C39.1771 32.2396 38.7188 32.4062 38.3438 32.5312C37.9688 32.6562 37.75 32.6875 37.6875 32.625C37.5625 32.5208 37.4167 32.3333 37.25 32.0625C37.1042 31.7917 37.0938 31.5312 37.2188 31.2812C37.2604 31.1979 37.4688 31.0312 37.8438 30.7812C38.2188 30.5312 38.6667 30.25 39.1875 29.9375C39.7292 29.6042 40.3125 29.2604 40.9375 28.9062C41.5625 28.5312 42.1562 28.1875 42.7188 27.875C42.1354 27.5625 41.5 27.2292 40.8125 26.875C40.125 26.5208 39.4792 26.1875 38.875 25.875C38.2708 25.5417 37.75 25.25 37.3125 25C36.8958 24.75 36.6667 24.5729 36.625 24.4688C36.4792 24.2396 36.4792 23.9792 36.625 23.6875C36.7917 23.3958 36.9375 23.1979 37.0625 23.0938Z" fill="black"/>
</svg>
