<svg xmlns="http://www.w3.org/2000/svg" width="354.297" height="500" viewBox="0 0 354.297 500"><g transform="translate(-74.6)"><path d="M108.4,0h22.461V22.266h20.7V0h22.461V67.383H151.564V44.922H131.056V67.383H108.4m95.313-44.922H183.888V0H246.1V22.461H226.173V67.383H203.712M255.959,0h23.535l14.453,23.73L308.4,0h23.535V67.383H309.474v-33.4L293.752,58.2,278.029,33.984v33.4h-22.07M343.068,0h22.461V45.117h31.836V67.383h-54.3" transform="translate(-0.792)"/><path d="M106.827,462.319,74.6,100.6H428.9L396.67,462.123,251.455,502.358" transform="translate(0 -2.358)" fill="#e44d26"/><path d="M256,472.309V131H400.824L373.188,439.594" transform="translate(-4.252 -3.07)" fill="#f16529"/><path d="M142,176.3H253.328v44.336h-62.7l4.1,45.41h58.594v44.238H154.109m1.953,22.266h44.531L203.719,368l49.609,13.281v46.289l-91.016-25.391" transform="translate(-1.58 -4.132)" fill="#ebebeb"/><path d="M366.933,176.3H255.8v44.336H362.831m-4,45.41H255.8v44.336h54.687L305.312,368,255.8,381.28v46.094l90.82-25.2" transform="translate(-4.247 -4.132)" fill="#fff"/></g></svg>
