<svg xmlns="http://www.w3.org/2000/svg" width="500" height="470.84" viewBox="0 0 500 470.84"><g transform="translate(-0.001 0.028)"><path d="M516.326,380.018V510.079l21.755,35.455,1.656,2.7h85.84l1.734-168.212Z" transform="translate(-153.323 -112.855)" fill="#e6e6e6"/><path d="M516.326,380.018V510.079l21.755,35.455,1.335-165.515Z" transform="translate(-153.323 -112.855)" opacity="0.1"/><path d="M174.688,375.084V505.145L152.933,540.6l-1.656,2.7H65.437L63.7,375.084Z" transform="translate(-18.916 -111.39)" fill="#e6e6e6"/><path d="M211.813,375.084V505.145L190.058,540.6l-1.335-165.516Z" transform="translate(-56.041 -111.39)" opacity="0.1"/><path d="M514.156,360.4v7.8H47.67V356.929l43.354-22.544H476Z" transform="translate(-14.155 -99.304)" fill="#e6e6e6"/><path d="M514.156,369.92v7.8H47.67V366.451Z" transform="translate(-14.155 -108.826)" opacity="0.1"/><path d="M130.183,424.319h-20.81L100.7,418.25h39.019Z" transform="translate(-29.903 -124.208)" fill="#14213d"/><path d="M130.183,460.085h-20.81l-8.671-6.069h39.019Z" transform="translate(-29.903 -134.829)" fill="#14213d"/><path d="M130.183,510.651h-20.81l-8.671-6.07h39.019Z" transform="translate(-29.903 -149.844)" fill="#14213d"/><path d="M130.183,561.216h-20.81l-8.671-6.069h39.019Z" transform="translate(-29.903 -164.86)" fill="#14213d"/><path d="M591.229,429.252h20.81l8.671-6.069H581.691Z" transform="translate(-172.733 -125.673)" fill="#14213d"/><path d="M591.229,465.018h20.81l8.671-6.069H581.691Z" transform="translate(-172.733 -136.294)" fill="#14213d"/><path d="M591.229,515.584h20.81l8.671-6.069H581.691Z" transform="translate(-172.733 -151.309)" fill="#14213d"/><path d="M591.229,566.149h20.81l8.671-6.069H581.691Z" transform="translate(-172.733 -166.324)" fill="#14213d"/><path d="M783.026,235.615H607.836a6.625,6.625,0,0,0-6.625,6.626V360.253a6.625,6.625,0,0,0,6.626,6.625h66.5l-2.492,15.907s-14.239,7.564-4.227,7.787,57.177,0,57.177,0,9.122,0-5.34-8.009l-2.344-15.685h65.911a6.625,6.625,0,0,0,6.625-6.626V242.241a6.625,6.625,0,0,0-6.626-6.626Z" transform="translate(-350.359 -150.937)" fill="#14213d"/><rect width="175.76" height="98.336" transform="translate(257.192 91.686)" fill="#f2f2f2"/><circle cx="1.112" cy="1.112" r="1.112" transform="translate(343.959 87.459)" fill="#f2f2f2"/><circle cx="4.227" cy="4.227" r="4.227" transform="translate(340.845 202.704)" fill="#f2f2f2"/><path d="M430.9,354.569v2.225H311.2v-1.78l.165-.445,2.95-8.009H428.449Z" transform="translate(-92.411 -102.92)" fill="#14213d"/><path d="M777.183,466.777c-.218.932-1.041,1.916-2.9,2.846-6.674,3.337-20.246-.89-20.246-.89s-10.457-1.78-10.457-6.452a8.352,8.352,0,0,1,.917-.545c2.806-1.485,12.11-5.148,28.608.155a6.879,6.879,0,0,1,3.136,2.055,3.281,3.281,0,0,1,.944,2.831Z" transform="translate(-392.636 -217.306)" fill="#14213d"/><path d="M777.57,466.777c-8.169,3.13-15.451,3.364-22.924-1.827a16.412,16.412,0,0,0-9.762-3.215c2.806-1.484,12.11-5.148,28.607.155a6.881,6.881,0,0,1,3.136,2.055A3.281,3.281,0,0,1,777.57,466.777Z" transform="translate(-393.023 -217.306)" opacity="0.1"/><ellipse cx="2.892" cy="0.89" rx="2.892" ry="0.89" transform="translate(371.411 245.865)" fill="#f2f2f2"/><path d="M430.9,357.952v2.225H311.2V358.4l.165-.445Z" transform="translate(-92.411 -106.302)" opacity="0.1"/><path d="M329.617,115.15a6.014,6.014,0,0,0-3.488.779,9.1,9.1,0,0,0-2.359,3.114,37.251,37.251,0,0,1-10.148,11.463c-3.015,2.209-6.849,4.963-6.333,9.036a12.212,12.212,0,0,0,1.47,3.814c2.782,5.615,10.373,9.955,9.626,16.362,2.764-4.627-.933-6.914,1.831-11.541,1.316-2.2,3.6-4.691,5.59-3.307.665.463,1.1,1.294,1.795,1.7,1.653.97,3.412-.884,4.875-2.2,5.046-4.53,12.221-3.343,18.5-1.932,2.964.666,6.22,1.54,7.972,4.373,2.3,3.725-2.189,7.748-3.324,11.959a2.295,2.295,0,0,0,2.463,2.856c1.884-.186,4.116-.338,4.227-1.165,2.37.084,5.275-.184,6.29-2.652a10.377,10.377,0,0,0,.487-3.018c.373-4.146,2.132-7.928,3.3-11.874s1.673-8.571-.295-12.069a13.967,13.967,0,0,0-2.577-3.132C358.352,116.916,343.675,115.134,329.617,115.15Z" transform="translate(-263.065 -115.159)"/><path d="M322.72,188.436s2.428,20.233-6.474,21.851,8.093,29.135,8.093,29.135l40.465,4.856-9.712-32.372s-6.474-2.428-2.428-18.614S322.72,188.436,322.72,188.436Z" transform="translate(-264.973 -135.782)" fill="#ffb8b8"/><path d="M47.028,569.318l3.238,44.512H67.26l-4.855-44.512Z" transform="translate(-13.965 -169.068)" fill="#ffb8b8"/><path d="M224.3,448.916l2.428,37.228,18.615-8.093L238.061,447.3Z" transform="translate(-66.607 -132.834)" fill="#ffb8b8"/><path d="M274.167,428.121s.809,46.94,5.665,62.317,4.047,16.186,3.237,18.614-1.619.809-1.619,4.856-1.619,67.982,0,73.647-4.856,15.377,0,16.186,27.516,0,28.326-4.856-6.474-6.474-3.237-9.712,8.093-69.6,8.093-69.6l11.33-46.13L347,449.163h44.512l13.758,53.414s-5.665,15.377-1.619,15.377S431.982,522.81,431.982,505s-8.093-70.409-9.712-72.028.809-7.284-1.619-9.712S389.9,403.842,379.377,400.6s-25.28-7.09-25.28-7.09Z" transform="translate(-253.243 -197.825)"/><path d="M489.533,596.718s-12.14-4.047-17.8,8.093-3.237,15.377-3.237,15.377,18.614,6.474,21.851,3.237c1.408-1.409,5.881-1.9,10.484-2,7.011-.157,8.877-10.077,2.255-12.387q-.3-.1-.6-.18C496.007,607.238,489.533,596.718,489.533,596.718Z" transform="translate(-310.794 -257.974)"/><circle cx="24.279" cy="24.279" r="24.279" transform="translate(51.677 17.449)" fill="#ffb8b8"/><path d="M299,232.569s39.656,8.093,49.368-4.856,13.758,36.419,13.758,36.419l4.856,51.8L359.7,344.253s-38.037,30.754-50.177,33.182-30.754,4.047-30.754,4.047,5.665-89.833,5.665-91.451S299,232.569,299,232.569Z" transform="translate(-254.611 -147.947)" fill="#fca311"/><path d="M303.755,212.971s-8.823-5.054-11.251-.2-25.088,17-27.516,17,4.856,67.172,1.619,75.266-18.614,67.172-9.712,72.028,2.428-4.856,11.33,7.284,52.6,12.14,55.033,7.284-19.423-41.275-15.377-75.266,10.521-80.931,4.856-87.405S303.755,212.971,303.755,212.971Z" transform="translate(-247.301 -143.528)"/><path d="M366.258,220.081l1.127-3.879s33.673,11.163,35.291,18.447.809,58.27-4.856,62.317-13.758,10.521-8.093,20.233,12.14,20.233,17,21.042,13.758,6.474,11.33,12.139-31.563-4.856-31.563-4.856-19.423-14.567-18.614-37.228S366.258,220.081,366.258,220.081Z" transform="translate(-280.59 -145.172)"/><path d="M391.107,357.554l-19.423,36.419s-28.326,29.135-12.14,32.372,25.089-26.707,25.089-26.707l21.042-29.944Z" transform="translate(-277.113 -187.146)" fill="#ffb8b8"/><path d="M333.057,124.189a5.511,5.511,0,0,0-2.839.551,6.617,6.617,0,0,0-1.921,2.2,27.963,27.963,0,0,1-8.261,8.1c-2.455,1.561-5.575,3.508-5.155,6.387a7.987,7.987,0,0,0,1.2,2.7,21.206,21.206,0,0,1,2.577,13.218l6.749-9.81c1.071-1.557,2.933-3.315,4.55-2.337.542.327.9.915,1.461,1.2,1.346.686,2.777-.625,3.968-1.554,4.107-3.2,9.949-2.363,15.06-1.365,2.413.471,5.063,1.089,6.49,3.091,2.37,3.328-.1,8.136,1.279,11.98a3.532,3.532,0,0,0,1.461-2.332c1.93.06,4.294-.13,5.121-1.875a6.46,6.46,0,0,0,.4-2.133c.3-2.93,1.736-5.6,2.685-8.393s1.362-6.058-.24-8.53a10.321,10.321,0,0,0-2.1-2.214C356.449,125.437,344.5,124.177,333.057,124.189Z" transform="translate(-265.322 -117.844)"/><path d="M403.813,237.836l7.54,2s17.548,44.938,13.5,75.692-6.474,24.279-6.474,24.279-6.474-14.568-21.042-11.33Z" transform="translate(-289.819 -151.596)"/><path d="M287.414,738.423c-1.952,2.652-1.56,6.443-3.289,9.246-1.5,2.429-4.323,3.7-6.2,5.855a15.7,15.7,0,0,0-1.593,2.292c-1.739,2.912-3.152,6.645-1.44,9.573,1.378,2.355,4.273,3.276,6.929,3.9,3.356.793,6.844,1.428,10.239.822s6.713-2.685,7.924-5.914a22.857,22.857,0,0,1,.847-2.391c1.84-3.623,7.612-3.662,9.5-7.263,1.318-2.52.106-5.565-1.1-8.138l-3.7-7.858c-1.227-2.608-6.2-1.108-8.8-1.733C293.345,736,289.848,735.1,287.414,738.423Z" transform="translate(-253.229 -299.543)"/><path d="M254.6,378.184l33.991,52.6s21.042,26.707,27.516,14.567-22.661-32.372-22.661-32.372l-21.851-40.465Z" transform="translate(-247.432 -191.59)" fill="#ffb8b8"/><path d="M268.567,239.454l-6.474-1.618s-12.949,4.047-16.186,21.042-.809,84.977,3.237,85.786,19.986-11.837,22.537-9.156-5.542-11.077-3.114-18.361S268.567,239.454,268.567,239.454Z" transform="translate(-244.406 -151.596)"/><g transform="translate(281.178 123.984)"><rect width="20.917" height="5.036" transform="translate(26.34)" fill="#fca311"/><rect width="7.36" height="5.036" transform="translate(112.334)" fill="#fca311"/><rect width="7.36" height="5.036" transform="translate(127.054)" fill="#fca311"/><rect width="49.969" height="5.036" transform="translate(54.618)" fill="#fca311"/><rect width="20.917" height="5.036" transform="translate(0 32.538)" fill="#fca311"/><rect width="7.36" height="5.036" transform="translate(85.993 32.538)" fill="#fca311"/><rect width="7.36" height="5.036" transform="translate(100.713 32.538)" fill="#fca311"/><rect width="49.969" height="5.036" transform="translate(28.277 32.538)" fill="#fca311"/><rect width="20.917" height="5.036" transform="translate(86.381 11.233)" fill="#fca311"/><rect width="20.917" height="5.036" transform="translate(114.658 11.233)" fill="#fca311"/><rect width="7.36" height="5.036" transform="translate(0 11.233)" fill="#fca311"/><rect width="7.36" height="5.036" transform="translate(14.72 11.233)" fill="#fca311"/><rect width="49.969" height="5.036" transform="translate(29.439 11.233)" fill="#fca311"/><rect width="20.917" height="5.036" transform="translate(42.997 22.079)" fill="#fca311"/><rect width="20.917" height="5.036" transform="translate(14.72 22.079)" fill="#fca311"/><rect width="7.36" height="5.036" transform="translate(0 22.079)" fill="#fca311"/><rect width="7.36" height="5.036" transform="translate(128.216 22.079)" fill="#fca311"/><rect width="49.969" height="5.036" transform="translate(70.886 22.079)" fill="#fca311"/></g></g></svg>