<svg xmlns="http://www.w3.org/2000/svg" width="500" height="500" viewBox="0 0 500 500"><rect width="500" height="500" fill="#f7df1e"/><path d="M370.1,449.62c10.071,16.444,23.175,28.532,46.349,28.532,19.468,0,31.9-9.73,31.9-23.175,0-16.111-12.778-21.817-34.206-31.19l-11.746-5.04c-33.9-14.444-56.429-32.54-56.429-70.794,0-35.238,26.849-62.064,68.81-62.064,29.873,0,51.349,10.4,66.825,37.619L445.023,347c-8.056-14.444-16.746-20.135-30.238-20.135-13.762,0-22.484,8.73-22.484,20.135,0,14.1,8.73,19.8,28.889,28.532l11.746,5.032c39.921,17.119,62.46,34.571,62.46,73.81,0,42.3-33.23,65.476-77.857,65.476-43.635,0-71.825-20.794-85.619-48.048Zm-165.976,4.071c7.381,13.1,14.1,24.167,30.238,24.167,15.437,0,25.175-6.04,25.175-29.524V288.573h46.984v160.4c0,48.651-28.524,70.794-70.159,70.794-37.619,0-59.4-19.468-70.484-42.917Z" transform="translate(-34.229 -58.993)"/></svg>