<svg xmlns="http://www.w3.org/2000/svg" width="355.065" height="500" viewBox="0 0 355.065 500"><path d="M1.334,109.332,1.39,113.8c.031,2.458,7.151,83.825,15.822,180.817L32.978,470.965l70.862,19.84c38.974,10.912,71.666,19.9,72.65,19.964s34.107-8.824,73.609-19.762c63.334-17.536,71.884-20.178,72.337-22.348.632-3.024,31.647-352.9,31.615-356.647l-.023-2.681H1.334Z" transform="translate(-0.142 -11.627)" fill="#fff"/><path d="M104.26,491.992,32.768,472.009l-.934-5.288C31,462.021,0,115.752,0,111.178c0-1.656,18.1-1.844,177.54-1.844,168.3,0,177.539.109,177.525,2.085-.056,8.537-32.146,359.391-32.935,360.089-1,.882-139.372,39.433-144,40.116-1.311.194-34.555-8.64-73.875-19.631Zm118.359-70.61c24.029-6.627,44.037-12.391,44.46-12.809s3.236-28.909,6.249-63.315,5.782-64.835,6.154-67.62l.676-5.064H176.348v44.087H232.4l-.557,2.681c-.307,1.475-1.5,14.146-2.648,28.159-1.219,14.848-2.663,26.05-3.463,26.85-.754.754-12.173,4.251-25.375,7.77l-24,6.4v22.457c0,15.328.41,22.457,1.291,22.457.71,0,20.951-5.422,44.981-12.05Zm56.855-176.511c-.787-5.838-7.8-84.149-7.8-87.1,0-1.794-4.125-1.966-47.066-1.966H177.539v46.1l21.15.815c11.632.448,23.874,1.131,27.2,1.516l6.055.7,1.47,18.031c.808,9.917,1.772,20.041,2.141,22.5l.671,4.468h43.928Z" transform="translate(0 -11.627)" fill="#eaebec"/><path d="M103.84,490.805l-70.862-19.84L17.212,294.618C8.54,197.626,1.42,116.259,1.389,113.8l-.056-4.468h352.7l.023,2.681c.032,3.743-30.984,353.622-31.615,356.647-.453,2.171-9,4.812-72.337,22.348-39.5,10.938-72.627,19.83-73.61,19.761s-33.675-9.053-72.649-19.965Zm118.975-68.581c24.5-6.81,44.885-12.945,45.31-13.632s3.351-30.634,6.5-66.549,5.989-66.237,6.3-67.384c.541-1.97-3.627-2.085-75.527-2.085h-76.1l3.24-34.257c1.782-18.841,3.283-34.305,3.335-34.365s11.221-.416,24.82-.792c22.3-.616,68.279,1.163,69.818,2.7.575.575,4.356,37.668,4.356,42.731,0,2.5.337,2.534,23.089,2.534h23.089l-.544-5.064c-.3-2.785-2.255-24.367-4.346-47.959l-3.8-42.9-89.043-.305c-70.839-.243-89.045,0-89.053,1.192-.006.823-.525,6.055-1.154,11.625-1.523,13.48-13.135,143.72-13.135,147.317v2.817H231.51l-.675,4.468c-.371,2.458-1.549,14.924-2.617,27.7s-2.286,23.565-2.706,23.969c-1.11,1.066-45.683,12.973-48.462,12.947-1.29-.012-12.8-2.885-25.581-6.383l-23.235-6.36-.852-10c-.469-5.5-1.182-13.352-1.584-17.448l-.732-7.447H79.975l.05,4.468c.093,8.356,5.512,64.642,6.3,65.429.91.91,87.5,25.25,90.166,25.346.983.035,21.829-5.508,46.325-12.319Z" transform="translate(-0.142 -11.627)" fill="#f0be25"/><path d="M103.84,490.805l-70.862-19.84L17.212,294.618C8.54,197.626,1.42,116.259,1.389,113.8l-.056-4.468h352.7l.023,2.681c.032,3.743-30.984,353.622-31.615,356.647-.453,2.171-9,4.812-72.337,22.348-39.5,10.938-72.627,19.83-73.61,19.761s-33.675-9.053-72.649-19.965Zm132.148-26.542c31.172-8.6,57.261-16.242,57.977-16.979,1.114-1.148,28.035-296.205,27.927-306.077l-.036-3.277H177.681v16.682h-41.7c-32.563,0-41.706.326-41.714,1.489-.006.819-.525,6.047-1.154,11.618-1.523,13.48-13.135,143.72-13.135,147.317v2.817h97.706v34.555c0,26.861-.332,34.55-1.489,34.532-.819-.012-11.945-2.885-24.724-6.383l-23.235-6.36-.852-10c-.469-5.5-1.182-13.352-1.584-17.448l-.732-7.447H79.975l.05,4.468c.143,12.781,5.672,64.95,6.968,65.751.788.487,21.515,6.443,46.06,13.235L177.681,435.1v22.4c0,12.319.367,22.4.816,22.4s26.32-7.037,57.492-15.639ZM132.42,238.638c1.713-18.665,3.348-34.148,3.633-34.406s9.768-.725,21.073-1.038l20.554-.569v69.949H129.306Z" transform="translate(-0.142 -11.627)" fill="#e4a126"/><path d="M126.667,55.407V44.087h32.172V0h22.639V66.726h-54.81ZM192.2,57.79V48.853H207.1c8.192,0,14.894-.3,14.894-.673s-6.7-7.937-14.894-16.815L192.2,15.223V0h61.96V17.8l-14.544.335-14.544.335,15.14,16.3,15.14,16.3V66.726H192.2Z" transform="translate(-13.471)" fill="#0e0e0f"/></svg>