<svg xmlns="http://www.w3.org/2000/svg" width="517.199" height="136.642" viewBox="0 0 517.199 136.642">
  <g id="MongoDB_Logo" transform="translate(-6.321 -4.69)">
    <path id="Path_1" data-name="Path 1" d="M66.561,59.068c-7.2-31.757-22.2-40.211-26.03-46.187A67.976,67.976,0,0,1,36.347,4.69c-.2,2.821-.574,4.6-2.972,6.738C28.56,15.721,8.112,32.384,6.391,68.467,4.787,102.109,31.123,122.854,34.6,125c2.675,1.317,5.934.028,7.523-1.18,12.7-8.713,30.04-31.94,24.45-64.75" fill="#10aa50"/>
    <path id="Path_2" data-name="Path 2" d="M69.321,222.46c-.663,8.327-1.138,13.165-2.821,17.924,0,0,1.1,7.927,1.881,16.325h2.746a152.684,152.684,0,0,1,3-17.58C70.567,237.379,69.457,229.767,69.321,222.46Z" transform="translate(-31.884 -115.377)" fill="#b8c4c2"/>
    <path id="Path_3" data-name="Path 3" d="M76.432,124.562h0c-3.592-1.66-4.631-9.432-4.791-16.673a341.286,341.286,0,0,0,.776-35.9c-.188-6.282.089-58.181-1.547-65.78a63.142,63.142,0,0,0,3.86,7.471c3.827,5.981,18.836,14.435,26.03,46.192C106.365,92.626,89.113,115.793,76.432,124.562Z" transform="translate(-34.199 -0.805)" fill="#12924f"/>
    <path id="Path_4" data-name="Path 4" d="M1080.911,215.921a7.8,7.8,0,1,1,7.8-7.909,7.7,7.7,0,0,1-7.8,7.909m0-14.9a7.1,7.1,0,1,0,7.053,7.119,6.982,6.982,0,0,0-7.053-7.119m1.881,12.027-2.012-4.34h-1.622v4.34h-1.18v-9.874h2.911c2.168,0,3.07.94,3.07,2.76a2.4,2.4,0,0,1-1.951,2.628l2.078,4.472Zm-3.588-5.36h1.707c1.382,0,1.909-.47,1.909-1.73s-.5-1.688-2.06-1.688H1079.2Z" transform="translate(-565.196 -103.647)" fill="#21313c"/>
    <path id="Path_5" data-name="Path 5" d="M818.049,156.154c2.111,1.688,6.329,2.384,10.048,2.384,4.819,0,9.545-.893,14.162-5.064,4.7-4.274,7.937-10.814,7.937-21.257,0-10.034-3.818-18.178-11.651-22.945-4.42-2.779-10.147-3.874-16.678-3.874a13.844,13.844,0,0,0-4.918.6,2.581,2.581,0,0,0-.908,1.411c-.2,1.787-.2,15.394-.2,23.439,0,8.247,0,19.748.2,21.159.1,1.194.706,3.291,2.008,4.171M798,100.93c1.707,0,8.2.3,11.214.3,5.642,0,9.54-.3,20.087-.3,8.84,0,16.278,2.384,21.6,6.949,6.432,5.567,9.874,13.311,9.874,22.748,0,13.41-6.113,21.159-12.258,25.527-6.112,4.57-14.063,7.152-25.39,7.152-6.028,0-16.377-.2-25.014-.3h-.179c-.4-.795.738-3.893,1.444-3.973a12.778,12.778,0,0,0,4.053-.8c1.824-.748,2.252-1.679,2.454-4.956.3-6.16.2-13.509.2-21.854,0-5.957.1-17.58-.1-21.257-.306-3.075-1.6-3.87-4.232-4.467a54.663,54.663,0,0,0-5.642-.893c-.2-.6,1.345-3.291,1.848-3.874" transform="translate(-418.429 -50.989)" fill="#21313c"/>
    <path id="Path_6" data-name="Path 6" d="M964.235,106.166c-.4.1-.9,1.1-.9,1.589-.1,3.578-.2,12.911-.2,19.367a.639.639,0,0,0,.5.5c1.3.1,4.518.2,7.231.2,3.818,0,6.028-.5,7.232-1.1,3.216-1.589,4.7-5.069,4.7-8.84,0-8.642-6.028-11.919-14.966-11.919a26.961,26.961,0,0,0-3.616.2m22.8,39.731c0-8.741-6.432-13.706-18.187-13.706a45.919,45.919,0,0,0-5.12.1c-.3.1-.6.3-.6.5,0,6.258-.1,16.287.2,20.261.2,1.688,1.411,4.072,2.91,4.768,1.608.893,5.224,1.091,7.735,1.091,6.931,0,13.062-3.87,13.062-13.01m-40.935-44.6c.907,0,3.578.3,10.41.3,6.428,0,11.651-.2,17.867-.2,7.734,0,18.38,2.784,18.38,14.3,0,5.642-4.016,10.231-9.239,12.418-.3.1-.3.3,0,.395,7.434,1.881,13.96,6.456,13.96,15.2,0,8.543-5.323,13.908-13.057,17.284-4.7,2.088-10.546,2.779-16.457,2.779-4.519,0-16.631-.47-23.364-.395-.705-.3.644-3.479,1.246-3.973a18.517,18.517,0,0,0,4.556-.715c2.407-.592,2.694-1.368,3-4.946.2-3.08.2-14.106.2-21.953,0-10.73.1-17.975,0-21.554-.1-2.779-1.1-3.677-3.014-4.171-1.5-.3-4.016-.6-6.023-.893-.5-.5,1.044-3.479,1.542-3.874" transform="translate(-496.996 -51.185)" fill="#21313c"/>
    <path id="Path_7" data-name="Path 7" d="M180.689,186.84a4.354,4.354,0,0,1-.306-2.008,2.553,2.553,0,0,1,.306-1.34,34.124,34.124,0,0,0,3.856-.785c1.777-.442,2.445-1.411,2.548-3.677.292-5.355.31-15.4.207-22.466v-.207a2.862,2.862,0,0,0-.94-2.525,20.189,20.189,0,0,0-5.327-2.351c-.842-.249-1.307-.691-1.284-1.208s.555-1.128,1.65-1.345a63.369,63.369,0,0,0,13.532-3.5,1.984,1.984,0,0,1,.4,1.411c0,.31-.047.639-.08.978-.085,1-.179,2.13-.179,3.258a.743.743,0,0,0,1.26.428c5.7-4.472,10.814-6.065,13.433-6.065,4.312,0,7.669,2.059,10.269,6.3a.691.691,0,0,0,.583.343.668.668,0,0,0,.545-.292c5.243-3.978,10.438-6.352,13.918-6.352,8.219,0,13.132,6.155,13.132,16.457,0,2.962-.028,6.719-.056,10.222-.023,3.075-.047,5.957-.047,7.951a2.748,2.748,0,0,0,1.622,2.092,20.785,20.785,0,0,0,5.134,1.265h.085a7.639,7.639,0,0,1-.517,3.362c-.545,0-1.3-.047-2.238-.094-1.707-.085-4.048-.2-6.771-.2-5.464,0-8.318.1-11.045.282a8.267,8.267,0,0,1-.028-3.343,28.948,28.948,0,0,0,3.348-.729c1.74-.574,2.243-1.364,2.351-3.672.042-1.641.357-16.1-.2-19.532a8.74,8.74,0,0,0-9.061-7.725,15.95,15.95,0,0,0-9.037,3.447,1.316,1.316,0,0,0-.329.851v.071a36.97,36.97,0,0,1,.395,7.283c0,1.881,0,3.841-.024,5.8-.023,3.987-.042,7.749.024,10.593a2.667,2.667,0,0,0,2.116,2.774c.513.113.917.212,1.326.306.785.193,1.6.39,2.821.583a5.4,5.4,0,0,1-.047,2.5,2,2,0,0,1-.353.851c-3.037-.1-6.155-.193-10.655-.193-1.364,0-3.588.056-5.553.108-1.594.042-3.1.085-3.954.089a3.874,3.874,0,0,1-.3-1.73,3,3,0,0,1,.315-1.617l1.208-.221c1.053-.188,1.965-.348,2.821-.564,1.486-.47,2.045-1.279,2.153-3.174.292-4.42.517-17.157-.108-20.345-1.063-5.116-3.973-7.711-8.656-7.711a16.287,16.287,0,0,0-9.037,3.442,2.755,2.755,0,0,0-.832,2.045v5.261c0,6.395-.042,14.355.113,17.8a2.819,2.819,0,0,0,2.459,2.784c.437.127,1.19.249,2.064.395.5.085,1.053.174,1.622.277a7.128,7.128,0,0,1-.268,3.362c-.875,0-1.951-.056-3.183-.108-1.881-.085-4.232-.188-6.888-.188-3.141,0-5.327.1-7.081.188-1.18.056-2.2.1-3.221.108" transform="translate(-91.884 -74.565)" fill="#21313c"/>
    <path id="Path_8" data-name="Path 8" d="M374.939,149.732a8.567,8.567,0,0,0-4.8,1.349c-3.489,2.121-5.266,6.357-5.266,12.582,0,11.651,5.835,19.79,14.19,19.79a8.934,8.934,0,0,0,6.122-2.168c2.567-2.092,3.931-6.371,3.931-12.361,0-11.477-5.7-19.193-14.19-19.193m1.608,38.043c-15.093,0-20.467-11.073-20.467-21.431,0-7.236,2.957-12.893,8.793-16.819a26.853,26.853,0,0,1,13.584-4.015c11.515,0,19.56,8.28,19.56,20.143,0,8.059-3.211,14.425-9.291,18.4a26.353,26.353,0,0,1-12.178,3.719" transform="translate(-185.3 -74.608)" fill="#21313c"/>
    <path id="Path_9" data-name="Path 9" d="M701.749,149.732a8.544,8.544,0,0,0-4.805,1.349c-3.489,2.121-5.266,6.357-5.266,12.582,0,11.651,5.835,19.79,14.19,19.79a8.933,8.933,0,0,0,6.141-2.168c2.567-2.092,3.926-6.371,3.926-12.361,0-11.477-5.7-19.193-14.186-19.193m1.608,38.043c-15.093,0-20.467-11.073-20.467-21.427,0-7.246,2.957-12.9,8.8-16.823a26.8,26.8,0,0,1,13.579-4.015c11.515,0,19.56,8.285,19.56,20.138,0,8.068-3.211,14.43-9.291,18.4a26.3,26.3,0,0,1-12.178,3.724" transform="translate(-358.453 -74.608)" fill="#21313c"/>
    <path id="Path_10" data-name="Path 10" d="M595.407,149.295c-4.65,0-7.659,3.672-7.659,9.357s2.591,12.441,9.874,12.441a7.087,7.087,0,0,0,4.641-1.791c1.693-1.556,2.821-4.772,2.821-8.167,0-7.415-3.611-11.839-9.653-11.839m-.6,39.233a7.66,7.66,0,0,0-3.762.94c-3.682,2.351-5.388,4.7-5.388,7.434a7.937,7.937,0,0,0,3.127,6.4c2.586,2.191,6.075,3.258,10.659,3.258,9.023,0,13.067-4.852,13.067-9.658,0-3.348-1.679-5.591-5.134-6.86-2.661-.973-7.109-1.509-12.554-1.509m.6,23.039c-5.417,0-9.319-1.143-12.653-3.71a11.857,11.857,0,0,1-4.7-8.783,6.87,6.87,0,0,1,1.777-4.467c.94-1.072,3.127-3.08,8.181-6.554a.432.432,0,0,0,.263-.4.418.418,0,0,0-.32-.414c-4.161-1.594-5.417-4.232-5.8-5.642a.486.486,0,0,0-.042-.221,1.305,1.305,0,0,1,.527-1.622c.583-.414,1.514-.969,2.511-1.556a33.813,33.813,0,0,0,4.039-2.628.663.663,0,0,0-.169-1.034C582.9,172.471,579.8,167.9,579.8,160.9a13.556,13.556,0,0,1,5.689-11.158,25.953,25.953,0,0,1,12.728-4.316h.235a26.242,26.242,0,0,1,9.714,2.163,15.442,15.442,0,0,0,5.746.912c3.428,0,4.928-1.086,6.216-2.351a5.4,5.4,0,0,1,.329,1.777,6.686,6.686,0,0,1-1.119,4.081,5.071,5.071,0,0,1-3.86,1.679,3.211,3.211,0,0,1-.47-.024,12.669,12.669,0,0,1-2.351-.39l-.385.136c-.122.179-.042.376.056.63a.806.806,0,0,1,.056.155,27.521,27.521,0,0,1,.56,3.809c0,7.312-2.882,10.495-6,12.855a20.481,20.481,0,0,1-10.344,4.006h0c-.08,0-.47.033-1.2.1-.47.042-1.081.1-1.171.1h-.089c-.677.188-2.445,1.03-2.445,2.6,0,1.3.8,2.91,4.622,3.2l2.473.174c5.04.353,11.336.79,14.3,1.791a9.9,9.9,0,0,1,6.616,9.531c0,6.559-4.664,12.728-12.474,16.5a27.111,27.111,0,0,1-11.8,2.647" transform="translate(-302.929 -74.565)" fill="#21313c"/>
    <path id="Path_11" data-name="Path 11" d="M509.695,183.183a17.942,17.942,0,0,1-5.727-1.49,2.633,2.633,0,0,1-.705-1.411c-.2-3.08-.2-12.018-.2-17.867,0-4.772-.8-8.934-2.821-11.919a12.09,12.09,0,0,0-10.245-5.365c-3.917,0-9.141,2.68-13.457,6.357-.1.1-.766.729-.752-.249s.165-2.962.259-4.232a2.177,2.177,0,0,0-.658-1.843c-2.821,1.411-10.734,3.291-13.664,3.578-2.135.414-2.675,2.469-.395,3.178h.033a19.494,19.494,0,0,1,5.172,2.276,2.713,2.713,0,0,1,.8,2.483c.1,6.653.1,16.885-.2,22.447-.1,2.186-.705,2.981-2.313,3.381l.15-.052a31.243,31.243,0,0,1-3.719.7c-.5.494-.5,3.376,0,3.973,1.006,0,6.113-.3,10.344-.3,5.821,0,8.835.3,10.344.3a5.543,5.543,0,0,0,.4-3.973,21.16,21.16,0,0,1-4.124-.6c-1.6-.395-2.008-1.194-2.106-2.976-.2-4.674-.2-14.6-.2-21.361,0-1.881.5-2.779,1.1-3.291a13.236,13.236,0,0,1,8.238-2.976,8.989,8.989,0,0,1,6.113,2.083,8.51,8.51,0,0,1,2.878,5.614c.4,3.762.3,11.327.3,17.867,0,3.578-.3,4.476-1.6,4.871a16.224,16.224,0,0,1-4.119.795c-.6.6-.4,3.376,0,3.973,2.61,0,5.642-.3,10.043-.3,5.525,0,9.042.3,10.448.3a5.527,5.527,0,0,0,.4-3.973" transform="translate(-240.284 -74.406)" fill="#21313c"/>
  </g>
</svg>
