<svg xmlns="http://www.w3.org/2000/svg" width="500" height="258.209" viewBox="0 0 500 258.209"><g transform="translate(0 -0.003)"><path d="M0,142.114H16.472V77.089l25.5,56.707c3.008,6.836,7.129,9.292,15.205,9.292s12.036-2.429,15.049-9.292l25.5-56.707v65.049H114.2V77.2c0-6.335-2.539-9.4-7.764-10.982-12.512-3.906-20.908-.527-24.707,7.92L56.709,130.1,32.471,74.11c-3.643-8.447-12.195-11.826-24.707-7.92C2.534,67.775,0,70.839,0,77.172ZM127.9,89.169h16.467v35.84c-.154,1.948.625,6.519,9.648,6.658,4.6.073,35.532,0,35.82,0V88.991h16.5c.073,0-.017,58.189-.015,58.438.09,14.351-17.808,17.468-26.055,17.71H128.255V154.055l52.1,0c10.6-1.123,9.351-6.389,9.351-8.164v-4.321H154.7c-16.289-.146-26.66-7.258-26.79-15.437-.012-.732.352-36.609-.01-36.963Z" transform="translate(0 93.073)" fill="#00618a"/><path d="M89.716,141.236h47.359a36.532,36.532,0,0,0,15.21-3.169c7.129-3.271,10.613-7.708,10.613-13.516V112.515c0-4.753-3.96-9.187-11.719-12.144a40.453,40.453,0,0,0-14.1-2.429H117.123c-6.65,0-9.819-2.007-10.61-6.44a4.783,4.783,0,0,1-.159-1.479v-7.5a4.391,4.391,0,0,1,.159-1.375c.791-3.379,2.534-4.331,8.394-4.883.476,0,1.108-.107,1.587-.107h47.041V65.183h-46.25c-6.653,0-10.137.422-13.306,1.372C94.15,69.619,89.872,74.5,89.872,82.949v9.609c0,7.393,8.4,13.728,22.49,15.205,1.587.1,3.169.21,4.751.21h17.107a8.664,8.664,0,0,1,1.743.107c5.225.422,7.446,1.372,9.028,3.271a3.862,3.862,0,0,1,1.27,2.93v9.609a5.492,5.492,0,0,1-2.375,3.906c-1.426,1.27-3.8,2.112-6.97,2.324-.635,0-1.108.1-1.741.1H89.716v10.981Zm175.938-19.111c0,11.3,8.394,17.634,25.342,18.9q2.371.184,4.751.21h42.925V130.254H295.43c-9.661,0-13.306-2.429-13.306-8.237V65.2H265.652v56.914Zm-92.249.571V83.547c0-9.946,6.982-15.979,20.791-17.883a31.586,31.586,0,0,1,4.446-.317H229.91a33.867,33.867,0,0,1,4.6.317c13.809,1.9,20.791,7.935,20.791,17.883V122.7c0,8.069-2.966,12.388-9.8,15.2l16.226,14.648H242.6L229.475,140.7l-13.215.837H198.642a36.512,36.512,0,0,1-9.683-1.377c-10.5-2.856-15.552-8.359-15.552-17.461Zm17.781-.977a7.273,7.273,0,0,0,.317,1.694c.977,4.551,5.237,7.09,11.719,7.09h14.966l-13.745-12.41h19.126l11.963,10.823a7.718,7.718,0,0,0,4.15-5.291,5.39,5.39,0,0,0,.159-1.587V84.5a4.986,4.986,0,0,0-.159-1.482c-.977-4.231-5.239-6.665-11.587-6.665H203.252c-7.324,0-12.061,3.174-12.061,8.147v37.246Z" transform="translate(129.318 93.951)" fill="#e48e00"/><g transform="translate(311.543 0.003)"><path d="M298.547,140.939c-10.125-.273-17.861.667-24.473,3.455-1.88.793-4.875.813-5.183,3.169,1.033,1.082,1.2,2.7,2.014,4.028a31.772,31.772,0,0,0,6.624,7.773c2.6,1.96,5.273,4.06,8.064,5.762,4.956,3.022,10.488,4.749,15.259,7.773,2.813,1.782,5.605,4.028,8.35,6.045,1.355,1,2.271,2.544,4.028,3.167v-.288c-.928-1.179-1.165-2.8-2.014-4.028l-3.743-3.743a60.958,60.958,0,0,0-13.245-12.671c-3.938-2.827-12.754-6.646-14.4-11.231l-.288-.288a64.154,64.154,0,0,0,8.643-2.014c4.329-1.16,8.2-.862,12.671-2.014l6.047-1.729v-1.152c-2.261-2.319-3.872-5.388-6.336-7.485a184.986,184.986,0,0,0-20.728-15.552c-4.019-2.539-8.984-4.185-13.245-6.335-1.433-.723-3.95-1.1-4.9-2.3-2.236-2.852-3.455-6.47-5.181-9.766-3.613-6.958-7.163-14.561-10.366-21.882-2.185-4.993-3.613-9.917-6.333-14.4-13.074-21.494-27.149-34.468-48.946-47.217-4.639-2.71-10.222-3.784-16.126-5.183l-9.5-.576c-1.934-.806-3.945-3.174-5.762-4.321-7.222-4.565-25.745-14.485-31.094-1.465-3.377,8.235,5.046,16.27,8.062,20.444,2.114,2.93,4.824,6.209,6.333,9.5.994,2.163,1.167,4.334,2.017,6.624,2.092,5.615,3.914,11.775,6.621,16.987a59.923,59.923,0,0,0,4.607,7.773c1.062,1.448,2.881,2.085,3.167,4.321-1.777,2.49-1.88,6.348-2.881,9.5-4.5,14.19-2.8,31.824,3.743,42.327,2.009,3.223,6.738,10.137,13.245,7.485,5.689-2.319,4.395-9.5,6.047-15.835.366-1.44.142-2.49.864-3.455v.288L185.4,122.8c3.833,6.177,10.645,12.634,16.411,16.992,2.991,2.258,5.371,6.165,9.214,7.485v-.288h-.288c-.75-1.172-1.921-1.653-2.881-2.588a66.1,66.1,0,0,1-6.624-7.485,174.785,174.785,0,0,1-14.106-23.035c-2.017-3.875-3.772-8.149-5.469-12.092-.654-1.521-.647-3.818-2.014-4.607-1.863,2.891-4.607,5.225-6.047,8.638-2.3,5.454-2.6,12.1-3.455,19-.505.181-.281.056-.576.288-4.009-.967-5.42-5.1-6.909-8.638-3.77-8.96-4.468-23.379-1.152-33.687.855-2.666,4.736-11.069,3.167-13.533-.75-2.459-3.223-3.906-4.607-5.762a45.374,45.374,0,0,1-4.607-8.062c-3.086-6.982-4.526-14.819-7.773-21.882-1.553-3.374-4.175-6.787-6.333-9.766-2.388-3.32-5.061-5.772-6.909-9.766-.659-1.428-1.553-3.711-.576-5.183A2.271,2.271,0,0,1,135.592,7.1c1.67-1.287,6.323.427,8.062,1.152a70.407,70.407,0,0,1,12.383,6.335c1.88,1.221,3.777,3.652,6.045,4.321h2.588c4.053.933,8.594.293,12.378,1.44a74.947,74.947,0,0,1,18.14,8.638A112.19,112.19,0,0,1,234.633,72.2c1.494,2.864,2.139,5.6,3.455,8.638,2.654,6.1,6,12.434,8.638,18.425s5.2,12.012,8.926,16.987c1.958,2.612,9.521,4.019,12.957,5.469,2.41,1.018,6.355,2.08,8.638,3.455,4.358,2.629,8.582,5.762,12.671,8.643,2.043,1.44,8.325,4.6,8.638,7.2Z" transform="translate(-127.607 -0.003)" fill="#00618a"/><path d="M147.97,12.8a20.485,20.485,0,0,0-5.183.576v.288h.288c1.006,2.07,2.783,3.4,4.028,5.183l2.881,6.045.288-.288c1.782-1.257,2.6-3.267,2.588-6.335-.715-.752-.82-1.694-1.44-2.593-.823-1.2-2.441-1.875-3.455-2.881Z" transform="translate(-105.727 18.437)" fill="#00618a" fill-rule="evenodd"/></g><path d="M194.855,98.875a12.139,12.139,0,1,0,12.139-12.139A11.976,11.976,0,0,0,194.855,98.875Zm21.558,0a9.426,9.426,0,1,1-9.424-9.614A9.392,9.392,0,0,1,216.413,98.875ZM210.26,105.8h2.717L209,99.719c2.136-.227,3.752-1.265,3.752-3.789,0-2.817-1.782-3.98-5.21-3.98h-5.408v13.855h2.332V99.817h2.168l3.626,5.989Zm-5.8-7.935V93.889h2.686c1.392,0,3.076.259,3.076,1.88,0,1.941-1.521,2.1-3.271,2.1h-2.49Z" transform="translate(280.868 125.018)" fill="#e48e00" fill-rule="evenodd"/></g></svg>