<svg xmlns="http://www.w3.org/2000/svg" xmlns:xlink="http://www.w3.org/1999/xlink" width="500" height="306.225" viewBox="0 0 500 306.225"><defs><clipPath id="a"><path d="M244.85,226.694l-47.618,27.485a5.747,5.747,0,0,0-2.878,4.98v55.008a5.746,5.746,0,0,0,2.878,4.98l47.622,27.506a5.765,5.765,0,0,0,5.753,0l47.614-27.506a5.76,5.76,0,0,0,2.871-4.98V259.158a5.747,5.747,0,0,0-2.882-4.98L250.6,226.694a5.789,5.789,0,0,0-5.764,0" transform="translate(-194.354 -225.925)"/></clipPath><linearGradient id="b" x1="-0.847" y1="-1.034" x2="-0.838" y2="-1.034" gradientUnits="objectBoundingBox"><stop offset="0.3" stop-color="#3e863d"/><stop offset="0.5" stop-color="#55934f"/><stop offset="0.8" stop-color="#5aad45"/></linearGradient><clipPath id="c"><path d="M195.4,317.641a5.762,5.762,0,0,0,1.7,1.487l40.848,23.595,6.8,3.911a5.772,5.772,0,0,0,3.316.752,5.881,5.881,0,0,0,1.13-.207l50.223-91.959a5.7,5.7,0,0,0-1.338-1.062L266.9,236.151l-16.482-9.483a6.012,6.012,0,0,0-1.492-.6Zm0,0" transform="translate(-195.398 -226.069)"/></clipPath><linearGradient id="d" x1="-0.742" y1="-0.932" x2="-0.737" y2="-0.932" gradientUnits="objectBoundingBox"><stop offset="0.57" stop-color="#3e863d"/><stop offset="0.72" stop-color="#619857"/><stop offset="1" stop-color="#76ac64"/></linearGradient><clipPath id="e"><path d="M246.8,225.955a5.809,5.809,0,0,0-2.3.737L197.021,254.1l51.2,93.259a5.71,5.71,0,0,0,2.046-.705l47.619-27.506a5.77,5.77,0,0,0,2.78-3.929l-52.2-89.167a5.978,5.978,0,0,0-1.164-.115c-.158,0-.316.008-.475.023" transform="translate(-197.021 -225.934)"/></clipPath><linearGradient id="f" x1="-2.148" y1="-2.103" x2="-2.138" y2="-2.103" gradientUnits="objectBoundingBox"><stop offset="0.16" stop-color="#6bbf47"/><stop offset="0.38" stop-color="#79b461"/><stop offset="0.47" stop-color="#75ac64"/><stop offset="0.7" stop-color="#659e5a"/><stop offset="0.9" stop-color="#3e863d"/></linearGradient></defs><g transform="translate(0 0)"><path d="M224.949,285.133a9.5,9.5,0,0,1-4.736-1.266l-15.074-8.925c-2.252-1.259-1.153-1.7-.41-1.961a30.435,30.435,0,0,0,6.816-3.108,1.144,1.144,0,0,1,1.122.079l11.581,6.872a1.528,1.528,0,0,0,1.4,0L270.8,250.76a1.424,1.424,0,0,0,.689-1.221V197.434a1.45,1.45,0,0,0-.7-1.243l-45.136-26.042a1.389,1.389,0,0,0-1.39,0l-45.127,26.042a1.439,1.439,0,0,0-.715,1.232v52.106a1.391,1.391,0,0,0,.7,1.209l12.365,7.143c6.714,3.357,10.817-.6,10.817-4.578V201.876a1.288,1.288,0,0,1,1.311-1.3h5.719a1.293,1.293,0,0,1,1.3,1.3v51.45c0,8.952-4.883,14.095-13.371,14.095-2.611,0-4.668,0-10.41-2.826l-11.845-6.827a9.548,9.548,0,0,1-4.736-8.24V197.423a9.488,9.488,0,0,1,4.736-8.228l45.2-26.075a9.9,9.9,0,0,1,9.494,0l45.143,26.087a9.526,9.526,0,0,1,4.736,8.228V249.54a9.553,9.553,0,0,1-4.736,8.228L229.7,283.843a9.491,9.491,0,0,1-4.758,1.266" transform="translate(22.182 21.092)" fill="#689f63"/><path d="M233.742,246.46c-19.757,0-23.9-9.069-23.9-16.676a1.3,1.3,0,0,1,1.308-1.3h5.832a1.306,1.306,0,0,1,1.289,1.105c.882,5.943,3.5,8.94,15.451,8.94,9.517,0,13.563-2.15,13.563-7.2,0-2.9-1.153-5.064-15.937-6.51-12.365-1.221-20.006-3.945-20.006-13.835,0-9.11,7.686-14.535,20.56-14.535,14.456,0,21.622,5.018,22.526,15.8a1.316,1.316,0,0,1-.35,1.006,1.344,1.344,0,0,1-.961.418h-5.866a1.3,1.3,0,0,1-1.266-1.017c-1.413-6.25-4.826-8.251-14.106-8.251-10.387,0-11.6,3.617-11.6,6.33,0,3.289,1.424,4.25,15.44,6.1,13.88,1.842,20.469,4.442,20.469,14.2,0,9.833-8.206,15.473-22.515,15.473m55-55.259h1.515a1.316,1.316,0,0,0,1.481-1.379c0-1.334-.916-1.334-1.424-1.334h-1.56Zm-1.842-4.272h3.357c1.153,0,3.413,0,3.413,2.577a2.243,2.243,0,0,1-1.842,2.4c1.345.09,1.435.972,1.616,2.215a9.527,9.527,0,0,0,.509,2.577h-2.068c-.057-.452-.373-2.939-.373-3.074-.136-.554-.328-.825-1.017-.825h-1.707v3.911h-1.888Zm-4.035,4.86a5.143,5.143,0,1,0-.011-.011m16,.034a8.7,8.7,0,1,0-.011,0" transform="translate(27.337 23.861)" fill="#689f63"/><path d="M107.3,102.346a5.782,5.782,0,0,0-2.891-5.024L56.539,69.778a5.59,5.59,0,0,0-2.631-.757h-.5a5.688,5.688,0,0,0-2.645.757L2.9,97.322a5.826,5.826,0,0,0-2.9,5.03l.105,74.191a2.848,2.848,0,0,0,1.435,2.5,2.735,2.735,0,0,0,2.871,0l28.46-16.3a5.837,5.837,0,0,0,2.894-5.018v-34.66a5.765,5.765,0,0,1,2.888-5.007l12.117-6.978a5.748,5.748,0,0,1,2.894-.778,5.647,5.647,0,0,1,2.875.776l12.111,6.976a5.768,5.768,0,0,1,2.894,5.007v34.658a5.856,5.856,0,0,0,2.9,5.018l28.442,16.287a2.826,2.826,0,0,0,2.894,0,2.9,2.9,0,0,0,1.433-2.5ZM333.21,140.975a1.437,1.437,0,0,1-.723,1.25L316.043,151.7a1.449,1.449,0,0,1-1.443,0l-16.445-9.479a1.432,1.432,0,0,1-.723-1.25V121.991a1.454,1.454,0,0,1,.712-1.255l16.434-9.494a1.46,1.46,0,0,1,1.458,0l16.445,9.494a1.441,1.441,0,0,1,.723,1.255ZM337.652.366a2.891,2.891,0,0,0-4.3,2.528V76.363a2.022,2.022,0,0,1-3.034,1.752l-11.992-6.907a5.773,5.773,0,0,0-5.778,0l-47.89,27.639a5.77,5.77,0,0,0-2.893,5v55.293a5.789,5.789,0,0,0,2.893,5.007l47.89,27.658a5.806,5.806,0,0,0,5.784,0l47.89-27.669a5.8,5.8,0,0,0,2.894-5.007V21.32a5.8,5.8,0,0,0-2.973-5.052ZM497.126,121.491a5.783,5.783,0,0,0,2.874-5v-13.4a5.786,5.786,0,0,0-2.879-5L449.537,70.467a5.779,5.779,0,0,0-5.8,0L395.86,98.1a5.772,5.772,0,0,0-2.893,5.007v55.27a5.8,5.8,0,0,0,2.916,5.03l47.573,27.115a5.767,5.767,0,0,0,5.674.034l28.777-15.993a2.887,2.887,0,0,0,.023-5.03l-48.172-27.647a2.869,2.869,0,0,1-1.458-2.5V122.053a2.869,2.869,0,0,1,1.447-2.5l14.987-8.647a2.858,2.858,0,0,1,2.882,0l15,8.647a2.882,2.882,0,0,1,1.447,2.5v13.631a2.884,2.884,0,0,0,4.34,2.5Zm0,0" transform="translate(0 0)" fill="#333" fill-rule="evenodd"/><path d="M395.662,105.217a1.1,1.1,0,0,1,1.108,0l9.189,5.3a1.11,1.11,0,0,1,.554.961v10.613a1.11,1.11,0,0,1-.554.961l-9.189,5.3a1.1,1.1,0,0,1-1.108,0l-9.183-5.3a1.106,1.106,0,0,1-.565-.961V111.479a1.1,1.1,0,0,1,.554-.961Zm0,0" transform="translate(50.275 13.688)" fill="#689f63" fill-rule="evenodd"/><g transform="translate(131.166 69.974)" clip-path="url(#a)"><path d="M354.759,254.374,220.578,188.6l-68.8,140.351,134.177,65.774Zm0,0" transform="translate(-199.901 -230.787)" fill="url(#b)"/></g><g transform="translate(132.346 70.137)" clip-path="url(#c)"><path d="M144.07,274.674l94.745,128.233,125.3-92.576L269.367,182.1Zm0,0" transform="translate(-202.085 -231.797)" fill="url(#d)"/></g><g transform="translate(134.181 69.984)" clip-path="url(#e)"><path d="M197.02,225.934V347.36H300.647V225.934Zm0,0" transform="translate(-197.021 -225.934)" fill="url(#f)"/></g></g></svg>