<svg xmlns="http://www.w3.org/2000/svg" xmlns:xlink="http://www.w3.org/1999/xlink" width="518.851" height="291.854" viewBox="0 0 518.851 291.854"><defs><clipPath id="a"><path d="M14.4-253.29c0,72.354,111.505,131.009,249.049,131.009h0c137.543,0,249.05-58.655,249.05-131.009h0c0-72.353-111.506-131.009-249.05-131.009h0C125.905-384.3,14.4-325.642,14.4-253.29" transform="translate(-14.4 384.299)"/></clipPath><radialGradient id="b" cx="0.628" cy="0.8" r="1.248" gradientTransform="translate(-0.009 0.511) scale(0.526 1)" gradientUnits="objectBoundingBox"><stop offset="0" stop-color="#aeb2d5"/><stop offset="0.3" stop-color="#aeb2d5"/><stop offset="0.75" stop-color="#484c89"/><stop offset="1" stop-color="#484c89"/></radialGradient><clipPath id="c"><path d="M0-405H518.851v291.854H0Z" transform="translate(0 405)"/></clipPath></defs><g transform="translate(0 405)"><g transform="translate(10.377 -390.082)"><g clip-path="url(#a)"><path d="M14.4-253.29c0,72.354,111.505,131.009,249.049,131.009h0c137.543,0,249.05-58.655,249.05-131.009h0c0-72.353-111.506-131.009-249.05-131.009h0C125.905-384.3,14.4-325.642,14.4-253.29" transform="translate(-14.4 384.299)" fill="url(#b)"/></g></g><g transform="translate(0 -405)"><g clip-path="url(#c)"><g transform="translate(20.106 24.644)"><path d="M-92.78-94.038c132.171,0,239.32-54.3,239.32-121.282S39.391-336.6-92.78-336.6-332.1-282.3-332.1-215.32-224.951-94.038-92.78-94.038" transform="translate(332.1 336.603)" fill="#777bb3"/></g></g></g><g transform="translate(0 -405)"><g clip-path="url(#c)"><g transform="translate(86.18 85.298)"><path d="M-23.07-29.334c10.868,0,18.981-2,24.115-5.955C6.124-39.2,9.631-45.974,11.47-55.424c1.714-8.833,1.061-15-1.94-18.329-3.069-3.4-9.7-5.124-19.721-5.124H-27.559l-9.628,49.543ZM-79.876,31.694a2.7,2.7,0,0,1-2.084-.984,2.7,2.7,0,0,1-.567-2.234l25.517-131.29A2.7,2.7,0,0,1-54.358-105h55c17.284,0,30.149,4.693,38.236,13.95,8.13,9.306,10.64,22.314,7.461,38.663A61.71,61.71,0,0,1,39.723-34a61.555,61.555,0,0,1-12.17,15.25,53.392,53.392,0,0,1-20.03,12C.313-4.4-8.945-3.211-19.995-3.211H-42.264l-6.36,32.718a2.7,2.7,0,0,1-2.652,2.187Z" transform="translate(82.578 105)"/></g><g transform="translate(83.478 82.595)"><path d="M-23.241-12.223H-8.1c12.089,0,16.289,2.653,17.716,4.234,2.367,2.625,2.814,8.159,1.293,16C9.2,16.8,6.029,23.025,1.488,26.522c-4.65,3.58-12.209,5.394-22.466,5.394h-10.84ZM2.73-43.75h-55a5.4,5.4,0,0,0-5.3,4.373L-83.09,91.913a5.406,5.406,0,0,0,1.134,4.469,5.4,5.4,0,0,0,4.171,1.966h28.6a5.4,5.4,0,0,0,5.306-4.373l5.934-30.532H-17.9c11.334,0,20.875-1.236,28.356-3.672a56.091,56.091,0,0,0,21.037-12.6A64.284,64.284,0,0,0,44.172,31.269a64.407,64.407,0,0,0,6.907-19.188C54.426-5.128,51.707-18.908,43-28.874,34.378-38.745,20.828-43.75,2.73-43.75M-38.376,37.321h17.4q17.3,0,25.763-6.516T16.214,9.044Q19.052-5.592,13.627-11.61T-8.1-17.627H-27.7l-10.68,54.948M2.73-38.345q24.817,0,36.2,13.026T45.774,11.05a58.784,58.784,0,0,1-6.319,17.582,58.633,58.633,0,0,1-11.64,14.578A50.515,50.515,0,0,1,8.778,54.632Q-1.693,58.044-17.9,58.039H-42.4l-6.784,34.905h-28.6L-52.268-38.345h55" transform="translate(83.189 43.75)" fill="#fff"/></g><g transform="translate(207.93 50.393)"><path d="M-28.2-52.994a2.7,2.7,0,0,1-2.084-.984,2.7,2.7,0,0,1-.568-2.234L-19.564-114.3c1.074-5.525.809-9.49-.745-11.165-.951-1.024-3.809-2.742-12.257-2.742h-20.45L-67.208-55.181a2.7,2.7,0,0,1-2.653,2.187H-98.235a2.7,2.7,0,0,1-2.085-.984,2.7,2.7,0,0,1-.567-2.234L-75.371-187.5a2.7,2.7,0,0,1,2.653-2.186h28.375a2.7,2.7,0,0,1,2.085.983,2.7,2.7,0,0,1,.567,2.235l-6.158,31.688h22c16.759,0,28.123,2.955,34.742,9.033,6.747,6.2,8.852,16.116,6.258,29.473L3.279-55.181A2.7,2.7,0,0,1,.626-52.994Z" transform="translate(100.938 189.687)"/></g><g transform="translate(205.228 47.69)"><path d="M-22.988,0H-51.363a5.4,5.4,0,0,0-5.306,4.373l-25.517,131.29a5.4,5.4,0,0,0,1.135,4.469A5.4,5.4,0,0,0-76.88,142.1h28.375a5.405,5.405,0,0,0,5.306-4.373l13.767-70.842h18.222c8.434,0,10.2,1.8,10.275,1.879.512.55,1.185,3.1.074,8.811L-12.15,135.663a5.4,5.4,0,0,0,1.135,4.469A5.4,5.4,0,0,0-6.844,142.1H21.981a5.405,5.405,0,0,0,5.306-4.373l11.871-61.1c2.786-14.341.4-25.1-7.081-31.978-7.141-6.559-19.1-9.746-36.571-9.746H-23.216l5.534-28.469a5.406,5.406,0,0,0-1.135-4.469A5.4,5.4,0,0,0-22.988,0m0,5.4L-29.772,40.31H-4.494q23.858,0,32.914,8.321T33.853,75.6L21.981,136.694H-6.844L4.443,78.6Q6.37,68.692,3.025,65.085t-14.237-3.607H-33.89l-14.616,75.215H-76.88L-51.363,5.4h28.375" transform="translate(82.285)" fill="#fff"/></g><g transform="translate(309.408 85.298)"><path d="M-23.07-29.334c10.868,0,18.981-2,24.115-5.955C6.124-39.2,9.631-45.973,11.471-55.424c1.714-8.833,1.061-15-1.941-18.329-3.069-3.4-9.7-5.124-19.721-5.124H-27.559l-9.628,49.543ZM-79.875,31.694a2.7,2.7,0,0,1-2.084-.984,2.7,2.7,0,0,1-.568-2.234l25.517-131.29A2.7,2.7,0,0,1-54.357-105h55c17.285,0,30.149,4.693,38.236,13.95C47-81.744,49.514-68.736,46.336-52.387A61.761,61.761,0,0,1,39.723-34a61.555,61.555,0,0,1-12.17,15.25,53.392,53.392,0,0,1-20.03,12C.314-4.4-8.945-3.211-19.995-3.211h-22.27l-6.357,32.718a2.7,2.7,0,0,1-2.654,2.187Z" transform="translate(82.578 105)"/></g><g transform="translate(306.707 82.595)"><path d="M-23.24-12.223H-8.1c12.089,0,16.289,2.653,17.716,4.234,2.368,2.625,2.815,8.159,1.293,16C9.2,16.8,6.029,23.025,1.488,26.522c-4.65,3.58-12.209,5.394-22.466,5.394H-31.818ZM2.73-43.75h-55a5.4,5.4,0,0,0-5.3,4.373L-83.089,91.913a5.406,5.406,0,0,0,1.134,4.469,5.4,5.4,0,0,0,4.171,1.966h28.6a5.405,5.405,0,0,0,5.306-4.373l5.933-30.532H-17.9c11.334,0,20.875-1.236,28.356-3.672a56.09,56.09,0,0,0,21.039-12.6,64.252,64.252,0,0,0,12.681-15.9A64.407,64.407,0,0,0,51.08,12.081c3.346-17.209.628-30.99-8.079-40.956C34.378-38.745,20.829-43.75,2.73-43.75m-41.1,81.071h17.4q17.3,0,25.763-6.516T16.214,9.044q2.84-14.636-2.586-20.654T-8.1-17.627H-27.7L-38.375,37.321M2.73-38.345q24.817,0,36.2,13.026T45.774,11.05a58.784,58.784,0,0,1-6.319,17.582,58.633,58.633,0,0,1-11.64,14.578A50.515,50.515,0,0,1,8.779,54.632Q-1.693,58.044-17.9,58.039H-42.4l-6.783,34.905h-28.6L-52.266-38.345h55" transform="translate(83.188 43.75)" fill="#fff"/></g></g></g></g></svg>