<svg xmlns="http://www.w3.org/2000/svg" width="493.466" height="511.655" viewBox="0 0 493.466 511.655">
  <g id="react" transform="translate(16 21.149)">
    <circle id="Ellipse_1" data-name="Ellipse 1" cx="46.005" cy="46.005" r="46.005" transform="translate(184.728 188.674)" fill="#61dafb"/>
    <g id="Group_1" data-name="Group 1" transform="translate(-11 -15.021)">
      <ellipse id="Ellipse_2" data-name="Ellipse 2" cx="241.733" cy="94.253" rx="241.733" ry="94.253" transform="translate(0 155.446)" fill="none" stroke="#61dafb" stroke-width="10"/>
      <path id="Path_1" data-name="Path 1" d="M236.423.892C366.159-.822,470.8,38.558,470.145,88.849S363.789,181.3,234.053,183.012-.324,145.347.331,95.056,106.687,2.607,236.423.892Z" transform="translate(203.748 0) rotate(60)" fill="none" stroke="#61dafb" stroke-width="10"/>
      <path id="Path_2" data-name="Path 2" d="M233.428-.712C363.164,1,468.866,43.161,469.521,93.452S365.534,183.123,235.8,181.408.36,137.536-.294,87.245,103.692-2.426,233.428-.712Z" transform="translate(437.284 91.692) rotate(120)" fill="none" stroke="#61dafb" stroke-width="10"/>
    </g>
  </g>
</svg>
