<svg xmlns="http://www.w3.org/2000/svg" width="500" height="374.97" viewBox="0 0 500 374.97"><path d="M430.513,215.529a103.519,103.519,0,0,0-45.3,10.5c-4.658-9.224-9.315-17.443-10.137-23.471-.913-7.032-2.009-11.325-.913-19.727s6.028-20.366,5.936-21.279-1.1-5.206-11.142-5.3-18.722,1.918-19.727,4.566a110.2,110.2,0,0,0-4.2,14.886c-1.735,9.133-20.092,41.736-30.595,58.815-3.379-6.667-6.3-12.512-6.941-17.169-.913-7.032-2.009-11.325-.913-19.727s6.028-20.366,5.936-21.279-1.1-5.206-11.142-5.3-18.722,1.918-19.727,4.566-2.1,8.859-4.2,14.886-26.485,60.458-32.878,74.523c-3.288,7.215-6.119,12.968-8.128,16.9h0a4.165,4.165,0,0,1-.365.731c-1.735,3.379-2.74,5.206-2.74,5.206v.091c-1.37,2.466-2.831,4.749-3.562,4.749-.548,0-1.553-6.576.183-15.526,3.653-18.9,12.329-48.312,12.238-49.317,0-.548,1.644-5.662-5.662-8.311-7.124-2.648-9.681,1.735-10.32,1.735s-1.1,1.553-1.1,1.553,7.945-33.06-15.16-33.06c-14.43,0-34.339,15.8-44.2,30.047-6.21,3.379-19.453,10.594-33.608,18.357-5.388,3.014-10.959,6.028-16.165,8.859-.365-.365-.731-.822-1.1-1.187C86.941,215.986,35.25,194.889,37.442,154.8c.822-14.612,5.845-52.97,99.272-99.546,76.9-37.9,138.086-27.4,148.68-4.11,15.16,33.243-32.786,94.98-112.241,103.93-30.321,3.379-46.211-8.311-50.23-12.694-4.2-4.566-4.84-4.84-6.393-3.927-2.557,1.37-.913,5.48,0,7.854,2.375,6.21,12.146,17.169,28.677,22.558,14.612,4.749,50.138,7.4,93.153-9.224,48.129-18.631,85.756-70.413,74.705-113.793C302.016,1.824,228.954-12.7,159.82,11.87,118.723,26.483,74.155,49.5,42.1,79.452,4.016,115.07-2.011,146.029.454,159c8.859,46.029,72.331,75.984,97.72,98.176-1.279.731-2.466,1.37-3.47,1.918-12.694,6.3-61.1,31.6-73.153,58.358-13.7,30.321,2.192,52.056,12.694,54.979,32.6,9.041,66.121-7.215,84.112-34.065s15.8-61.737,7.489-77.719a1.911,1.911,0,0,0-.365-.548c3.288-1.918,6.667-3.927,9.955-5.845,6.484-3.836,12.877-7.4,18.357-10.32-3.105,8.493-5.388,18.631-6.484,33.243-1.37,17.169,5.662,39.453,14.886,48.221,4.11,3.836,8.95,3.927,12.055,3.927,10.777,0,15.617-8.95,21.005-19.544,6.576-12.968,12.512-28.037,12.512-28.037s-7.4,40.732,12.694,40.732c7.306,0,14.7-9.5,17.991-14.338v.091s.183-.274.548-.913c.731-1.187,1.187-1.918,1.187-1.918v-.183c2.922-5.114,9.5-16.713,19.27-35.983,12.6-24.841,24.75-55.892,24.75-55.892a158.723,158.723,0,0,0,4.84,20.183c2.192,7.4,6.758,15.526,10.411,23.38-2.922,4.11-4.749,6.393-4.749,6.393l.091.091c-2.375,3.105-4.932,6.484-7.763,9.772-9.955,11.872-21.827,25.48-23.471,29.407-1.918,4.658-1.461,8.037,2.192,10.777,2.648,2.009,7.4,2.283,12.238,2.009a56.2,56.2,0,0,0,18.357-4.2,61.609,61.609,0,0,0,15.8-8.311c9.772-7.215,15.708-17.535,15.16-31.143-.274-7.489-2.74-14.978-5.754-22.01.913-1.279,1.735-2.557,2.648-3.836a418.358,418.358,0,0,0,27.4-47.307,158.718,158.718,0,0,0,4.84,20.183c1.827,6.393,5.571,13.334,8.859,20.092-14.521,11.781-23.471,25.48-26.667,34.43-5.754,16.622-1.279,24.11,7.215,25.846,3.836.822,9.315-1,13.334-2.74a60.735,60.735,0,0,0,16.9-8.676c9.772-7.215,19.179-17.261,18.631-30.868a58.357,58.357,0,0,0-4.2-18.265c12.329-5.114,28.22-7.945,48.495-5.571,43.472,5.114,52.056,32.238,50.413,43.654s-10.777,17.626-13.79,19.544-4.018,2.557-3.744,3.927c.365,2.009,1.827,1.918,4.384,1.553,3.562-.639,22.832-9.224,23.654-30.229C501.291,244.571,475.72,215.255,430.513,215.529ZM95.16,328.592c-14.43,15.708-34.522,21.644-43.2,16.621-9.315-5.388-5.662-28.585,12.055-45.207,10.777-10.137,24.658-19.544,33.882-25.3,2.1-1.279,5.206-3.105,8.95-5.388.639-.365,1-.548,1-.548h0l2.192-1.37C116.531,291.148,110.321,312.062,95.16,328.592Zm105.026-71.418c-5.023,12.238-15.526,43.563-21.918,41.828-5.48-1.461-8.859-25.206-1.1-48.677C181.1,238.544,189.41,224.479,194.25,219c7.854-8.767,16.53-11.69,18.631-8.128C215.529,215.529,203.292,249.5,200.186,257.174Zm86.669,41.462c-2.1,1.1-4.11,1.827-5.023,1.279-.639-.365.913-1.827.913-1.827s10.868-11.69,15.16-16.987c2.466-3.105,5.388-6.758,8.493-10.868v1.187C306.4,285.394,292.883,294.8,286.856,298.637Zm66.851-15.252c-1.553-1.1-1.279-4.749,3.927-16.165,2.009-4.475,6.758-11.964,14.886-19.179a25.853,25.853,0,0,1,1.461,8.4C373.89,274.07,361.287,280.645,353.707,283.385Z" transform="translate(0.026 0.026)" fill="#cd6799"/></svg>