<?xml version="1.0" encoding="utf-8"?>
<!-- Svg Vector Icons : http://www.onlinewebfonts.com/icon -->
<!DOCTYPE svg PUBLIC "-//W3C//DTD SVG 1.1//EN" "http://www.w3.org/Graphics/SVG/1.1/DTD/svg11.dtd">
<svg version="1.1" xmlns="http://www.w3.org/2000/svg" xmlns:xlink="http://www.w3.org/1999/xlink" x="0px" y="0px" viewBox="0 0 1000 1000" enable-background="new 0 0 1000 1000" xml:space="preserve">
<metadata> Svg Vector Icons : http://www.onlinewebfonts.com/icon </metadata>
<g><path d="M500,10C229.4,10,10,229.4,10,500c0,270.6,219.4,490,490,490c270.6,0,490-219.4,490-490C990,229.4,770.6,10,500,10z M423.1,750.1c-47.7,47.7-125.4,47.6-173.1-0.1c-47.8-47.8-47.8-125.4-0.1-173.1l143.1-143.1c47.7-47.7,125.4-47.7,173.1,0.1l-28.9,28.8c-31.9-31.9-83.8-31.9-115.8-0.1L278.8,605.3c-31.9,31.9-31.9,83.8,0.1,115.8c31.9,31.9,83.8,31.9,115.8,0.1l81.8-81.8l28.7,28.7L423.1,750.1z M750.1,423.1L606.9,566.3c-47.7,47.7-125.4,47.7-173.1-0.1l28.9-28.8c31.9,31.9,83.8,31.9,115.8,0.1l142.7-142.7c31.9-31.9,31.9-83.8-0.1-115.8c-31.9-31.9-83.8-31.9-115.8-0.1l-81.7,81.8l-28.8-28.8l82-82c47.7-47.7,125.4-47.6,173.1,0.1C797.8,297.8,797.8,375.4,750.1,423.1z"/></g>
</svg>